# xmcd
#
# Track frame offsets:
#	150
#	12515
#	87040
#	97285
#	125932
#	197862
#
# Disc length: 3410 seconds
#
# Revision: 0
# Processed by: cddbd v1.5.2PL0 Copyright (c) Steve Scherf et al.
# Submitted via: EasyCDDAExtractor 16.0.6.1
#
DISCID=540d5006
DTITLE=Βυζ. χορωδία υπό Κώστα Ζορμπά - Βυζαντινή μουσική 06-Ακάθιστος Ύμνος 1
DYEAR=1989
DGENRE=Βυζ. Εκκλησιαστική
TTITLE0=Μαυροειδής Γεώργιος π.-Βυζ. χορ. υπό Κώστα Ζορμπά - Το προσταχθέν μυστ
TTITLE0=ικώς [απολυτίκιον, ήχ. πλ. δ']
TTITLE1=Μαυροειδής Γεώργιος π.-Βυζ. χορ. υπό Κώστα Ζορμπά - Α' Στάσις [Α-Β-Γ-Δ
TTITLE1=Ε-Ζ]
TTITLE2=Βυζ. χορωδία υπό Κώστα Ζορμπά - Τη Υπερμάχω [κοντάκιον, ήχ. πλ. δ']
TTITLE3=Βυζ. χορωδία υπό Κώστα Ζορμπά - Ο Κανών [ωδές α'-γ', ήχ. δ' ειρμοί κ τ
TTITLE3=ροπάρια]
TTITLE4=Μαυροειδής Γεώργιος π.-Βυζ. χορ. υπό Κώστα Ζορμπά - Β' Στάσις [Η-Θ-Ι-Κ
TTITLE4=Λ-Μ]
TTITLE5=Βυζ. χορωδία υπό Κώστα Ζορμπά - Ο Κανών [ωδές δ'-στ', ειρμοί κ τροπάρι
TTITLE5=α]
EXTD=
EXTT0=
EXTT1=
EXTT2=
EXTT3=
EXTT4=
EXTT5=
PLAYORDER=
